<?xml version="1.0" encoding="iso-8859-1"?>
<!-- Generator: Adobe Illustrator 16.0.0, SVG Export Plug-In . SVG Version: 6.00 Build 0)  -->
<!DOCTYPE svg PUBLIC "-//W3C//DTD SVG 1.1//EN" "http://www.w3.org/Graphics/SVG/1.1/DTD/svg11.dtd">
<svg version="1.1" id="Capa_1" xmlns="http://www.w3.org/2000/svg" xmlns:xlink="http://www.w3.org/1999/xlink" x="0px" y="0px"
	 width="72.745px" height="72.744px" viewBox="0 0 72.745 72.744" style="enable-background:new 0 0 72.745 72.744;"
	 xml:space="preserve">
<g>
	<path d="M61.9,57.686c0.57,0.64,0.929,1.476,0.929,2.398v9.043c0,1.998-1.617,3.617-3.617,3.617H7.367
		c-1.996,0-3.617-1.619-3.617-3.617v-9.043c0-1.996,1.621-3.617,3.617-3.617h0.949c-0.336-3.834-1.077-5.123-2.208-7.08
		c-0.813-1.406-1.825-3.158-2.949-6.219c-3.01-8.182-1.773-22.434-1.72-23.037c0.005-0.047,0.011-0.096,0.02-0.143
		c1.354-7.203,6.013-8.217,9.415-8.957c1.267-0.275,2.466-0.535,3.177-1.063c5.35-5.219,11.645-4.547,14.227-3.973
		c2.649-3.748,5.145-4.463,8.938-4.463c2.103,0,4.77,0.338,6.651,1.697C45.479,1.215,47.943,0,50.556,0
		c4.72,0,8.561,3.84,8.561,8.559c0.011,0.119,0.348,5.295-0.009,8.852c-0.076,0.773-0.729,1.35-1.489,1.35
		c-0.051,0-0.102-0.002-0.151-0.008c-0.824-0.082-1.426-0.816-1.343-1.641c0.33-3.312-0.001-8.402-0.005-8.453
		c-0.003-3.166-2.497-5.658-5.563-5.658c-1.967,0-3.808,1.057-4.805,2.756c-0.248,0.424-0.67,0.674-1.121,0.727
		c-0.646,0.408-1.506,0.273-1.983-0.342c-0.781-1.008-2.812-1.609-5.432-1.609c-3.341,0-4.742,0.516-6.824,3.688
		c-0.001,0.004-0.002,0.008-0.003,0.012c-0.274,0.779-1.133,1.191-1.909,0.916c-0.302-0.104-6.979-2.314-12.39,3.023
		c-0.039,0.039-0.081,0.074-0.124,0.109c-1.247,0.984-2.878,1.34-4.454,1.682c-3.132,0.682-6.091,1.324-7.09,6.506
		C4.33,21.561,3.299,34.862,5.975,42.135c1.034,2.818,1.936,4.375,2.729,5.75c1.274,2.205,2.232,3.875,2.618,8.582h47.65
		c3.505-4.059,9.627-12.381,9.627-21.004c0-9.604-1.617-9.832-7.634-10.678c-1.096-0.154-2.338-0.33-3.691-0.582
		c-4.285-0.797-7.629-0.35-8.939,1.195c-0.771,0.906-0.619,1.959-0.358,2.682c0.592,1.633,2.639,3.777,6.459,4.443
		c0.816,0.143,1.362,0.92,1.221,1.736c-0.143,0.816-0.926,1.363-1.735,1.219c-4.25-0.74-7.608-3.186-8.764-6.379
		c-0.741-2.045-0.416-4.104,0.892-5.643c1.201-1.416,4.33-3.588,11.776-2.203c1.288,0.24,2.494,0.41,3.561,0.561
		c6.899,0.971,10.216,1.955,10.216,13.648C71.601,44.609,65.743,53.1,61.9,57.686z"/>
</g>
<g>
</g>
<g>
</g>
<g>
</g>
<g>
</g>
<g>
</g>
<g>
</g>
<g>
</g>
<g>
</g>
<g>
</g>
<g>
</g>
<g>
</g>
<g>
</g>
<g>
</g>
<g>
</g>
<g>
</g>
</svg>
